STARTFONT 2.1
COMMENT Copyright 2016 (c) ErikPshat.  All rights reserved.
FONT -Misc-Fixed-Medium-R-Normal--10-90-75-75-C-100-cp1251-0
SIZE 10 75 75
FONTBOUNDINGBOX 10 10 0 -2
STARTPROPERTIES 19
FONTNAME_REGISTRY ""
FOUNDRY "Misc"
FAMILY_NAME "Fixed"
WEIGHT_NAME "Medium"
SLANT "R"
SETWIDTH_NAME "Normal"
ADD_STYLE_NAME ""
PIXEL_SIZE 10
POINT_SIZE 90
RESOLUTION_X 75
RESOLUTION_Y 75
SPACING "C"
AVERAGE_WIDTH 100
CHARSET_REGISTRY "ISO10646"
CHARSET_ENCODING "1"
DEFAULT_CHAR 0
FONT_DESCENT 2
FONT_ASCENT 8
COPYRIGHT "Copyright 2016 (c) ErikPshat.  All rights reserved."
ENDPROPERTIES
CHARS 288
STARTCHAR 20
ENCODING 32
SWIDTH 960 0
DWIDTH 4 0
BBX 10 10 0 -2
BITMAP
0000
0000
0000
0000
0000
0000
0000
0000
0000
0000
ENDCHAR
STARTCHAR 21
ENCODING 33
SWIDTH 960 0
DWIDTH 4 0
BBX 10 10 0 -2
BITMAP
0000
2000
2000
2000
2000
0000
0000
2000
0000
0000
ENDCHAR
STARTCHAR 22
ENCODING 34
SWIDTH 960 0
DWIDTH 5 0
BBX 10 10 0 -2
BITMAP
0000
2800
2800
0000
0000
0000
0000
0000
0000
0000
ENDCHAR
STARTCHAR 23
ENCODING 35
SWIDTH 960 0
DWIDTH 6 0
BBX 10 10 0 -2
BITMAP
0000
2800
2800
7c00
2800
7c00
2800
2800
0000
0000
ENDCHAR
STARTCHAR 24
ENCODING 36
SWIDTH 960 0
DWIDTH 1 0
BBX 10 10 0 -2
BITMAP
1000
3400
5c00
5000
3800
1400
7400
5800
1000
0000
ENDCHAR
STARTCHAR 25
ENCODING 37
SWIDTH 960 0
DWIDTH 10 0
BBX 10 10 0 -2
BITMAP
0000
1080
2900
1200
0400
0900
1280
2100
0000
0000
ENDCHAR
STARTCHAR 26
ENCODING 38
SWIDTH 960 0
DWIDTH 6 0
BBX 10 10 0 -2
BITMAP
0000
3000
4800
5000
2000
5400
4800
3400
0000
0000
ENDCHAR
STARTCHAR 27
ENCODING 39
SWIDTH 960 0
DWIDTH 3 0
BBX 10 10 0 -2
BITMAP
0000
2000
2000
4000
0000
0000
0000
0000
0000
0000
ENDCHAR
STARTCHAR 28
ENCODING 40
SWIDTH 960 0
DWIDTH 4 0
BBX 10 10 0 -2
BITMAP
1000
2000
4000
4000
4000
4000
4000
2000
1000
0000
ENDCHAR
STARTCHAR 29
ENCODING 41
SWIDTH 960 0
DWIDTH 4 0
BBX 10 10 0 -2
BITMAP
4000
2000
1000
1000
1000
1000
1000
2000
4000
0000
ENDCHAR
STARTCHAR 2a
ENCODING 42
SWIDTH 960 0
DWIDTH 8 0
BBX 10 10 0 -2
BITMAP
0000
4900
2a00
1c00
7f00
1c00
2a00
4900
0000
0000
ENDCHAR
STARTCHAR 2b
ENCODING 43
SWIDTH 960 0
DWIDTH 6 0
BBX 10 10 0 -2
BITMAP
0000
0000
1000
1000
7c00
1000
1000
0000
0000
0000
ENDCHAR
STARTCHAR 2c
ENCODING 44
SWIDTH 960 0
DWIDTH 5 0
BBX 10 10 0 -2
BITMAP
0000
0000
0000
0000
0000
0000
3000
3000
1000
2000
ENDCHAR
STARTCHAR 2d
ENCODING 45
SWIDTH 960 0
DWIDTH 5 0
BBX 10 10 0 -2
BITMAP
0000
0000
0000
0000
7800
0000
0000
0000
0000
0000
ENDCHAR
STARTCHAR 2e
ENCODING 46
SWIDTH 960 0
DWIDTH 5 0
BBX 10 10 0 -2
BITMAP
0000
0000
0000
0000
0000
0000
3000
3000
0000
0000
ENDCHAR
STARTCHAR 2f
ENCODING 47
SWIDTH 960 0
DWIDTH 5 0
BBX 10 10 0 -2
BITMAP
0000
0800
0800
1000
1000
2000
2000
4000
4000
0000
ENDCHAR
STARTCHAR 30
ENCODING 48
SWIDTH 960 0
DWIDTH 6 0
BBX 10 10 0 -2
BITMAP
0000
3800
4400
4c00
5400
6400
4400
3800
0000
0000
ENDCHAR
STARTCHAR 31
ENCODING 49
SWIDTH 960 0
DWIDTH 6 0
BBX 10 10 0 -2
BITMAP
0000
1000
3000
1000
1000
1000
1000
3800
0000
0000
ENDCHAR
STARTCHAR 32
ENCODING 50
SWIDTH 960 0
DWIDTH 6 0
BBX 10 10 0 -2
BITMAP
0000
3800
4400
0400
1800
2000
4000
7c00
0000
0000
ENDCHAR
STARTCHAR 33
ENCODING 51
SWIDTH 960 0
DWIDTH 6 0
BBX 10 10 0 -2
BITMAP
0000
3800
4400
0400
1800
0400
4400
3800
0000
0000
ENDCHAR
STARTCHAR 34
ENCODING 52
SWIDTH 960 0
DWIDTH 6 0
BBX 10 10 0 -2
BITMAP
0000
0800
1800
2800
4800
7c00
0800
0800
0000
0000
ENDCHAR
STARTCHAR 35
ENCODING 53
SWIDTH 960 0
DWIDTH 6 0
BBX 10 10 0 -2
BITMAP
0000
7c00
4000
7800
0400
0400
4400
3800
0000
0000
ENDCHAR
STARTCHAR 36
ENCODING 54
SWIDTH 960 0
DWIDTH 6 0
BBX 10 10 0 -2
BITMAP
0000
3800
4400
4000
7800
4400
4400
3800
0000
0000
ENDCHAR
STARTCHAR 37
ENCODING 55
SWIDTH 960 0
DWIDTH 6 0
BBX 10 10 0 -2
BITMAP
0000
7c00
4400
0400
0800
1000
1000
1000
0000
0000
ENDCHAR
STARTCHAR 38
ENCODING 56
SWIDTH 960 0
DWIDTH 6 0
BBX 10 10 0 -2
BITMAP
0000
3800
4400
4400
3800
4400
4400
3800
0000
0000
ENDCHAR
STARTCHAR 39
ENCODING 57
SWIDTH 960 0
DWIDTH 6 0
BBX 10 10 0 -2
BITMAP
0000
3800
4400
4400
3c00
0400
4400
3800
0000
0000
ENDCHAR
STARTCHAR 3a
ENCODING 58
SWIDTH 960 0
DWIDTH 5 0
BBX 10 10 0 -2
BITMAP
0000
0000
3000
3000
0000
0000
3000
3000
0000
0000
ENDCHAR
STARTCHAR 3b
ENCODING 59
SWIDTH 960 0
DWIDTH 5 0
BBX 10 10 0 -2
BITMAP
0000
0000
3000
3000
0000
0000
3000
3000
1000
2000
ENDCHAR
STARTCHAR 3c
ENCODING 60
SWIDTH 960 0
DWIDTH 5 0
BBX 10 10 0 -2
BITMAP
0000
0800
1000
2000
4000
2000
1000
0800
0000
0000
ENDCHAR
STARTCHAR 3d
ENCODING 61
SWIDTH 960 0
DWIDTH 5 0
BBX 10 10 0 -2
BITMAP
0000
0000
0000
7800
0000
7800
0000
0000
0000
0000
ENDCHAR
STARTCHAR 3e
ENCODING 62
SWIDTH 960 0
DWIDTH 5 0
BBX 10 10 0 -2
BITMAP
0000
4000
2000
1000
0800
1000
2000
4000
0000
0000
ENDCHAR
STARTCHAR 3f
ENCODING 63
SWIDTH 960 0
DWIDTH 6 0
BBX 10 10 0 -2
BITMAP
0000
3800
4400
0400
0800
1000
0000
1000
0000
0000
ENDCHAR
STARTCHAR 40
ENCODING 64
SWIDTH 960 0
DWIDTH 8 0
BBX 10 10 0 -2
BITMAP
0000
1c00
2200
4d00
5500
5500
4e00
2000
1c00
0000
ENDCHAR
STARTCHAR 41
ENCODING 65
SWIDTH 960 0
DWIDTH 6 0
BBX 10 10 0 -2
BITMAP
0000
1000
2800
4400
4400
7c00
4400
4400
0000
0000
ENDCHAR
STARTCHAR 42
ENCODING 66
SWIDTH 960 0
DWIDTH 6 0
BBX 10 10 0 -2
BITMAP
0000
7800
4400
4400
7800
4400
4400
7800
0000
0000
ENDCHAR
STARTCHAR 43
ENCODING 67
SWIDTH 960 0
DWIDTH 6 0
BBX 10 10 0 -2
BITMAP
0000
3800
4400
4000
4000
4000
4400
3800
0000
0000
ENDCHAR
STARTCHAR 44
ENCODING 68
SWIDTH 960 0
DWIDTH 6 0
BBX 10 10 0 -2
BITMAP
0000
7800
4400
4400
4400
4400
4400
7800
0000
0000
ENDCHAR
STARTCHAR 45
ENCODING 69
SWIDTH 960 0
DWIDTH 6 0
BBX 10 10 0 -2
BITMAP
0000
7c00
4400
5000
7000
5000
4400
7c00
0000
0000
ENDCHAR
STARTCHAR 46
ENCODING 70
SWIDTH 960 0
DWIDTH 6 0
BBX 10 10 0 -2
BITMAP
0000
7c00
4400
5000
7000
5000
4000
4000
0000
0000
ENDCHAR
STARTCHAR 47
ENCODING 71
SWIDTH 960 0
DWIDTH 6 0
BBX 10 10 0 -2
BITMAP
0000
3800
4400
4000
4000
4c00
4400
3800
0000
0000
ENDCHAR
STARTCHAR 48
ENCODING 72
SWIDTH 960 0
DWIDTH 6 0
BBX 10 10 0 -2
BITMAP
0000
4400
4400
4400
7c00
4400
4400
4400
0000
0000
ENDCHAR
STARTCHAR 49
ENCODING 73
SWIDTH 960 0
DWIDTH 4 0
BBX 10 10 0 -2
BITMAP
0000
7000
2000
2000
2000
2000
2000
7000
0000
0000
ENDCHAR
STARTCHAR 4a
ENCODING 74
SWIDTH 960 0
DWIDTH 6 0
BBX 10 10 0 -2
BITMAP
0000
0400
0400
0400
0400
4400
4400
3800
0000
0000
ENDCHAR
STARTCHAR 4b
ENCODING 75
SWIDTH 960 0
DWIDTH 6 0
BBX 10 10 0 -2
BITMAP
0000
4400
4800
5000
6000
5000
4800
4400
0000
0000
ENDCHAR
STARTCHAR 4c
ENCODING 76
SWIDTH 960 0
DWIDTH 6 0
BBX 10 10 0 -2
BITMAP
0000
4000
4000
4000
4000
4000
4400
7c00
0000
0000
ENDCHAR
STARTCHAR 4d
ENCODING 77
SWIDTH 960 0
DWIDTH 6 0
BBX 10 10 0 -2
BITMAP
0000
4400
6c00
6c00
5400
5400
5400
4400
0000
0000
ENDCHAR
STARTCHAR 4e
ENCODING 78
SWIDTH 960 0
DWIDTH 6 0
BBX 10 10 0 -2
BITMAP
0000
4400
6400
6400
5400
4c00
4c00
4400
0000
0000
ENDCHAR
STARTCHAR 4f
ENCODING 79
SWIDTH 960 0
DWIDTH 6 0
BBX 10 10 0 -2
BITMAP
0000
3800
4400
4400
4400
4400
4400
3800
0000
0000
ENDCHAR
STARTCHAR 50
ENCODING 80
SWIDTH 960 0
DWIDTH 6 0
BBX 10 10 0 -2
BITMAP
0000
7800
4400
4400
7800
4000
4000
4000
0000
0000
ENDCHAR
STARTCHAR 51
ENCODING 81
SWIDTH 960 0
DWIDTH 6 0
BBX 10 10 0 -2
BITMAP
0000
3800
4400
4400
4400
5400
4800
3400
0000
0000
ENDCHAR
STARTCHAR 52
ENCODING 82
SWIDTH 960 0
DWIDTH 6 0
BBX 10 10 0 -2
BITMAP
0000
7800
4400
4400
7800
4800
4400
4400
0000
0000
ENDCHAR
STARTCHAR 53
ENCODING 83
SWIDTH 960 0
DWIDTH 6 0
BBX 10 10 0 -2
BITMAP
0000
3400
4c00
4000
3800
0400
6400
5800
0000
0000
ENDCHAR
STARTCHAR 54
ENCODING 84
SWIDTH 960 0
DWIDTH 6 0
BBX 10 10 0 -2
BITMAP
0000
7c00
1000
1000
1000
1000
1000
1000
0000
0000
ENDCHAR
STARTCHAR 55
ENCODING 85
SWIDTH 960 0
DWIDTH 6 0
BBX 10 10 0 -2
BITMAP
0000
4400
4400
4400
4400
4400
4400
3800
0000
0000
ENDCHAR
STARTCHAR 56
ENCODING 86
SWIDTH 960 0
DWIDTH 6 0
BBX 10 10 0 -2
BITMAP
0000
4400
4400
4400
2800
2800
1000
1000
0000
0000
ENDCHAR
STARTCHAR 57
ENCODING 87
SWIDTH 960 0
DWIDTH 8 0
BBX 10 10 0 -2
BITMAP
0000
4100
4900
4900
5500
5500
2200
2200
0000
0000
ENDCHAR
STARTCHAR 58
ENCODING 88
SWIDTH 960 0
DWIDTH 6 0
BBX 10 10 0 -2
BITMAP
0000
4400
4400
2800
1000
2800
4400
4400
0000
0000
ENDCHAR
STARTCHAR 59
ENCODING 89
SWIDTH 960 0
DWIDTH 6 0
BBX 10 10 0 -2
BITMAP
0000
4400
4400
2800
2800
1000
1000
1000
0000
0000
ENDCHAR
STARTCHAR 5a
ENCODING 90
SWIDTH 960 0
DWIDTH 6 0
BBX 10 10 0 -2
BITMAP
0000
7c00
4400
0800
1000
2000
4400
7c00
0000
0000
ENDCHAR
STARTCHAR 5b
ENCODING 91
SWIDTH 960 0
DWIDTH 4 0
BBX 10 10 0 -2
BITMAP
7000
4000
4000
4000
4000
4000
4000
4000
7000
0000
ENDCHAR
STARTCHAR 5c
ENCODING 92
SWIDTH 960 0
DWIDTH 5 0
BBX 10 10 0 -2
BITMAP
4000
4000
2000
2000
1000
1000
0800
0800
0000
0000
ENDCHAR
STARTCHAR 5d
ENCODING 93
SWIDTH 960 0
DWIDTH 4 0
BBX 10 10 0 -2
BITMAP
7000
1000
1000
1000
1000
1000
1000
1000
7000
0000
ENDCHAR
STARTCHAR 5e
ENCODING 94
SWIDTH 960 0
DWIDTH 6 0
BBX 10 10 0 -2
BITMAP
1000
2800
4400
0000
0000
0000
0000
0000
0000
0000
ENDCHAR
STARTCHAR 5f
ENCODING 95
SWIDTH 960 0
DWIDTH 6 0
BBX 10 10 0 -2
BITMAP
0000
0000
0000
0000
0000
0000
0000
0000
0000
7c00
ENDCHAR
STARTCHAR 60
ENCODING 96
SWIDTH 960 0
DWIDTH 3 0
BBX 10 10 0 -2
BITMAP
4000
4000
2000
0000
0000
0000
0000
0000
0000
0000
ENDCHAR
STARTCHAR 61
ENCODING 97
SWIDTH 960 0
DWIDTH 6 0
BBX 10 10 0 -2
BITMAP
0000
0000
0000
3800
0400
3c00
4400
3c00
0000
0000
ENDCHAR
STARTCHAR 62
ENCODING 98
SWIDTH 960 0
DWIDTH 6 0
BBX 10 10 0 -2
BITMAP
0000
4000
4000
5800
6400
4400
4400
7800
0000
0000
ENDCHAR
STARTCHAR 63
ENCODING 99
SWIDTH 960 0
DWIDTH 6 0
BBX 10 10 0 -2
BITMAP
0000
0000
0000
3800
4400
4000
4400
3800
0000
0000
ENDCHAR
STARTCHAR 64
ENCODING 100
SWIDTH 960 0
DWIDTH 6 0
BBX 10 10 0 -2
BITMAP
0000
0c00
0400
3400
4c00
4400
4400
3c00
0000
0000
ENDCHAR
STARTCHAR 65
ENCODING 101
SWIDTH 960 0
DWIDTH 6 0
BBX 10 10 0 -2
BITMAP
0000
0000
0000
3800
4400
7c00
4000
3800
0000
0000
ENDCHAR
STARTCHAR 66
ENCODING 102
SWIDTH 960 0
DWIDTH 5 0
BBX 10 10 0 -2
BITMAP
0000
1000
2800
2000
7000
2000
2000
7000
0000
0000
ENDCHAR
STARTCHAR 67
ENCODING 103
SWIDTH 960 0
DWIDTH 6 0
BBX 10 10 0 -2
BITMAP
0000
0000
0000
3400
4800
3000
4000
3800
4400
3800
ENDCHAR
STARTCHAR 68
ENCODING 104
SWIDTH 960 0
DWIDTH 8 0
BBX 10 10 0 -2
BITMAP
0000
6000
2000
2c00
3200
2200
2200
7700
0000
0000
ENDCHAR
STARTCHAR 69
ENCODING 105
SWIDTH 960 0
DWIDTH 4 0
BBX 10 10 0 -2
BITMAP
0000
2000
0000
6000
2000
2000
2000
7000
0000
0000
ENDCHAR
STARTCHAR 6a
ENCODING 106
SWIDTH 960 0
DWIDTH 5 0
BBX 10 10 0 -2
BITMAP
0000
0800
0000
1800
0800
0800
0800
0800
4800
3000
ENDCHAR
STARTCHAR 6b
ENCODING 107
SWIDTH 960 0
DWIDTH 8 0
BBX 10 10 0 -2
BITMAP
0000
6000
2000
2e00
2400
3800
2400
7700
0000
0000
ENDCHAR
STARTCHAR 6c
ENCODING 108
SWIDTH 960 0
DWIDTH 4 0
BBX 10 10 0 -2
BITMAP
0000
6000
2000
2000
2000
2000
2000
7000
0000
0000
ENDCHAR
STARTCHAR 6d
ENCODING 109
SWIDTH 960 0
DWIDTH 10 0
BBX 10 10 0 -2
BITMAP
0000
0000
0000
6900
3680
2480
2480
76c0
0000
0000
ENDCHAR
STARTCHAR 6e
ENCODING 110
SWIDTH 960 0
DWIDTH 8 0
BBX 10 10 0 -2
BITMAP
0000
0000
0000
6c00
3200
2200
2200
7700
0000
0000
ENDCHAR
STARTCHAR 6f
ENCODING 111
SWIDTH 960 0
DWIDTH 6 0
BBX 10 10 0 -2
BITMAP
0000
0000
0000
3800
4400
4400
4400
3800
0000
0000
ENDCHAR
STARTCHAR 70
ENCODING 112
SWIDTH 960 0
DWIDTH 7 0
BBX 10 10 0 -2
BITMAP
0000
0000
0000
6c00
3200
2200
3200
2c00
2000
7000
ENDCHAR
STARTCHAR 71
ENCODING 113
SWIDTH 960 0
DWIDTH 7 0
BBX 10 10 0 -2
BITMAP
0000
0000
0000
3600
4c00
4400
4c00
3400
0400
0e00
ENDCHAR
STARTCHAR 72
ENCODING 114
SWIDTH 960 0
DWIDTH 6 0
BBX 10 10 0 -2
BITMAP
0000
0000
0000
6c00
3000
2000
2000
7000
0000
0000
ENDCHAR
STARTCHAR 73
ENCODING 115
SWIDTH 960 0
DWIDTH 6 0
BBX 10 10 0 -2
BITMAP
0000
0000
0000
3c00
4000
3800
0400
7800
0000
0000
ENDCHAR
STARTCHAR 74
ENCODING 116
SWIDTH 960 0
DWIDTH 6 0
BBX 10 10 0 -2
BITMAP
0000
2000
2000
7800
2000
2000
2400
1800
0000
0000
ENDCHAR
STARTCHAR 75
ENCODING 117
SWIDTH 960 0
DWIDTH 8 0
BBX 10 10 0 -2
BITMAP
0000
0000
0000
6600
2200
2200
2600
1b00
0000
0000
ENDCHAR
STARTCHAR 76
ENCODING 118
SWIDTH 960 0
DWIDTH 8 0
BBX 10 10 0 -2
BITMAP
0000
0000
0000
7700
2200
2200
1400
0800
0000
0000
ENDCHAR
STARTCHAR 77
ENCODING 119
SWIDTH 960 0
DWIDTH 10 0
BBX 10 10 0 -2
BITMAP
0000
0000
0000
75c0
2480
2a80
2a80
1100
0000
0000
ENDCHAR
STARTCHAR 78
ENCODING 120
SWIDTH 960 0
DWIDTH 7 0
BBX 10 10 0 -2
BITMAP
0000
0000
0000
6600
2400
1800
2400
6600
0000
0000
ENDCHAR
STARTCHAR 79
ENCODING 121
SWIDTH 960 0
DWIDTH 8 0
BBX 10 10 0 -2
BITMAP
0000
0000
0000
7700
2200
1400
1400
0800
4800
3000
ENDCHAR
STARTCHAR 7a
ENCODING 122
SWIDTH 960 0
DWIDTH 6 0
BBX 10 10 0 -2
BITMAP
0000
0000
0000
7c00
4800
1000
2400
7c00
0000
0000
ENDCHAR
STARTCHAR 7b
ENCODING 123
SWIDTH 960 0
DWIDTH 5 0
BBX 10 10 0 -2
BITMAP
1800
2000
2000
2000
4000
2000
2000
2000
1800
0000
ENDCHAR
STARTCHAR 7c
ENCODING 124
SWIDTH 960 0
DWIDTH 4 0
BBX 10 10 0 -2
BITMAP
2000
2000
2000
2000
2000
2000
2000
2000
2000
2000
ENDCHAR
STARTCHAR 7d
ENCODING 125
SWIDTH 960 0
DWIDTH 5 0
BBX 10 10 0 -2
BITMAP
6000
1000
1000
1000
0800
1000
1000
1000
6000
0000
ENDCHAR
STARTCHAR 7e
ENCODING 126
SWIDTH 960 0
DWIDTH 8 0
BBX 10 10 0 -2
BITMAP
0000
0000
0000
3000
4900
0600
0000
0000
0000
0000
ENDCHAR
STARTCHAR 7f
ENCODING 127
SWIDTH 960 0
DWIDTH 9 0
BBX 10 10 0 -2
BITMAP
0000
0000
0000
0000
0000
0000
0000
0000
0000
0000
ENDCHAR
STARTCHAR a7
ENCODING 167
SWIDTH 960 0
DWIDTH 6 0
BBX 10 10 0 -2
BITMAP
0000
3800
4000
3800
4400
3800
0400
3800
0000
0000
ENDCHAR
STARTCHAR a9
ENCODING 169
SWIDTH 960 0
DWIDTH 8 0
BBX 10 10 0 -2
BITMAP
0000
1c00
2200
5d00
5100
5100
5d00
2200
1c00
0000
ENDCHAR
STARTCHAR ae
ENCODING 174
SWIDTH 960 0
DWIDTH 8 0
BBX 10 10 0 -2
BITMAP
0000
1c00
2200
5d00
5500
5900
5500
2200
1c00
0000
ENDCHAR
STARTCHAR c0
ENCODING 192
SWIDTH 960 0
DWIDTH 6 0
BBX 10 10 0 -2
BITMAP
2000
1000
0000
3800
4400
7c00
4400
4400
0000
0000
ENDCHAR
STARTCHAR c1
ENCODING 193
SWIDTH 960 0
DWIDTH 6 0
BBX 10 10 0 -2
BITMAP
0800
1000
0000
3800
4400
7c00
4400
4400
0000
0000
ENDCHAR
STARTCHAR c2
ENCODING 194
SWIDTH 960 0
DWIDTH 6 0
BBX 10 10 0 -2
BITMAP
1000
2800
0000
3800
4400
7c00
4400
4400
0000
0000
ENDCHAR
STARTCHAR c3
ENCODING 195
SWIDTH 960 0
DWIDTH 6 0
BBX 10 10 0 -2
BITMAP
1400
2800
0000
3800
4400
7c00
4400
4400
0000
0000
ENDCHAR
STARTCHAR c4
ENCODING 196
SWIDTH 960 0
DWIDTH 6 0
BBX 10 10 0 -2
BITMAP
2800
0000
1000
2800
4400
7c00
4400
4400
0000
0000
ENDCHAR
STARTCHAR c5
ENCODING 197
SWIDTH 960 0
DWIDTH 6 0
BBX 10 10 0 -2
BITMAP
1000
2800
1000
3800
4400
7c00
4400
4400
0000
0000
ENDCHAR
STARTCHAR c6
ENCODING 198
SWIDTH 960 0
DWIDTH 9 0
BBX 10 10 0 -2
BITMAP
0000
0f80
0c80
1400
1700
3c00
2480
7780
0000
0000
ENDCHAR
STARTCHAR c7
ENCODING 199
SWIDTH 960 0
DWIDTH 6 0
BBX 10 10 0 -2
BITMAP
0000
3800
4400
4000
4000
4000
4400
3800
1000
2000
ENDCHAR
STARTCHAR c8
ENCODING 200
SWIDTH 960 0
DWIDTH 6 0
BBX 10 10 0 -2
BITMAP
2000
1000
0000
7c00
4000
7800
4000
7c00
0000
0000
ENDCHAR
STARTCHAR c9
ENCODING 201
SWIDTH 960 0
DWIDTH 6 0
BBX 10 10 0 -2
BITMAP
0800
1000
0000
7c00
4000
7800
4000
7c00
0000
0000
ENDCHAR
STARTCHAR ca
ENCODING 202
SWIDTH 960 0
DWIDTH 6 0
BBX 10 10 0 -2
BITMAP
1000
2800
0000
7c00
4000
7800
4000
7c00
0000
0000
ENDCHAR
STARTCHAR cb
ENCODING 203
SWIDTH 960 0
DWIDTH 6 0
BBX 10 10 0 -2
BITMAP
2800
0000
7c00
4000
7800
4000
4000
7c00
0000
0000
ENDCHAR
STARTCHAR cc
ENCODING 204
SWIDTH 960 0
DWIDTH 4 0
BBX 10 10 0 -2
BITMAP
4000
2000
0000
7000
2000
2000
2000
7000
0000
0000
ENDCHAR
STARTCHAR cd
ENCODING 205
SWIDTH 960 0
DWIDTH 4 0
BBX 10 10 0 -2
BITMAP
1000
2000
0000
7000
2000
2000
2000
7000
0000
0000
ENDCHAR
STARTCHAR ce
ENCODING 206
SWIDTH 960 0
DWIDTH 4 0
BBX 10 10 0 -2
BITMAP
2000
5000
0000
7000
2000
2000
2000
7000
0000
0000
ENDCHAR
STARTCHAR cf
ENCODING 207
SWIDTH 960 0
DWIDTH 4 0
BBX 10 10 0 -2
BITMAP
5000
0000
7000
2000
2000
2000
2000
7000
0000
0000
ENDCHAR
STARTCHAR d0
ENCODING 208
SWIDTH 960 0
DWIDTH 6 0
BBX 10 10 0 -2
BITMAP
0000
7800
2400
2400
7400
2400
2400
7800
0000
0000
ENDCHAR
STARTCHAR d1
ENCODING 209
SWIDTH 960 0
DWIDTH 6 0
BBX 10 10 0 -2
BITMAP
1400
2800
0000
4400
6400
5400
4c00
4400
0000
0000
ENDCHAR
STARTCHAR d2
ENCODING 210
SWIDTH 960 0
DWIDTH 6 0
BBX 10 10 0 -2
BITMAP
2000
1000
0000
3800
4400
4400
4400
3800
0000
0000
ENDCHAR
STARTCHAR d3
ENCODING 211
SWIDTH 960 0
DWIDTH 6 0
BBX 10 10 0 -2
BITMAP
0800
1000
0000
3800
4400
4400
4400
3800
0000
0000
ENDCHAR
STARTCHAR d4
ENCODING 212
SWIDTH 960 0
DWIDTH 6 0
BBX 10 10 0 -2
BITMAP
1000
2800
0000
3800
4400
4400
4400
3800
0000
0000
ENDCHAR
STARTCHAR d5
ENCODING 213
SWIDTH 960 0
DWIDTH 6 0
BBX 10 10 0 -2
BITMAP
1400
2800
0000
3800
4400
4400
4400
3800
0000
0000
ENDCHAR
STARTCHAR d6
ENCODING 214
SWIDTH 960 0
DWIDTH 6 0
BBX 10 10 0 -2
BITMAP
2800
0000
3800
4400
4400
4400
4400
3800
0000
0000
ENDCHAR
STARTCHAR d7
ENCODING 215
SWIDTH 960 0
DWIDTH 6 0
BBX 10 10 0 -2
BITMAP
0000
0000
4400
2800
1000
2800
4400
0000
0000
0000
ENDCHAR
STARTCHAR d8
ENCODING 216
SWIDTH 960 0
DWIDTH 6 0
BBX 10 10 0 -2
BITMAP
0400
3800
4c00
5400
5400
5400
6400
3800
4000
0000
ENDCHAR
STARTCHAR d9
ENCODING 217
SWIDTH 960 0
DWIDTH 6 0
BBX 10 10 0 -2
BITMAP
2000
1000
4400
4400
4400
4400
4400
3800
0000
0000
ENDCHAR
STARTCHAR da
ENCODING 218
SWIDTH 960 0
DWIDTH 6 0
BBX 10 10 0 -2
BITMAP
0800
1000
4400
4400
4400
4400
4400
3800
0000
0000
ENDCHAR
STARTCHAR db
ENCODING 219
SWIDTH 960 0
DWIDTH 6 0
BBX 10 10 0 -2
BITMAP
1000
2800
0000
4400
4400
4400
4400
3800
0000
0000
ENDCHAR
STARTCHAR dc
ENCODING 220
SWIDTH 960 0
DWIDTH 6 0
BBX 10 10 0 -2
BITMAP
2800
0000
4400
4400
4400
4400
4400
3800
0000
0000
ENDCHAR
STARTCHAR dd
ENCODING 221
SWIDTH 960 0
DWIDTH 6 0
BBX 10 10 0 -2
BITMAP
2000
1000
4400
4400
2800
1000
1000
1000
0000
0000
ENDCHAR
STARTCHAR de
ENCODING 222
SWIDTH 960 0
DWIDTH 6 0
BBX 10 10 0 -2
BITMAP
0000
4000
7800
4400
4400
7800
4000
4000
4000
0000
ENDCHAR
STARTCHAR df
ENCODING 223
SWIDTH 960 0
DWIDTH 6 0
BBX 10 10 0 -2
BITMAP
0000
3800
4400
4400
5800
4400
4400
5800
4000
0000
ENDCHAR
STARTCHAR e0
ENCODING 224
SWIDTH 960 0
DWIDTH 6 0
BBX 10 10 0 -2
BITMAP
2000
1000
0000
3800
0400
3c00
4400
3c00
0000
0000
ENDCHAR
STARTCHAR e1
ENCODING 225
SWIDTH 960 0
DWIDTH 6 0
BBX 10 10 0 -2
BITMAP
0800
1000
0000
3800
0400
3c00
4400
3c00
0000
0000
ENDCHAR
STARTCHAR e2
ENCODING 226
SWIDTH 960 0
DWIDTH 6 0
BBX 10 10 0 -2
BITMAP
1000
2800
0000
3800
0400
3c00
4400
3c00
0000
0000
ENDCHAR
STARTCHAR e3
ENCODING 227
SWIDTH 960 0
DWIDTH 6 0
BBX 10 10 0 -2
BITMAP
1400
2800
0000
3800
0400
3c00
4400
3c00
0000
0000
ENDCHAR
STARTCHAR e4
ENCODING 228
SWIDTH 960 0
DWIDTH 6 0
BBX 10 10 0 -2
BITMAP
0000
2800
0000
3800
0400
3c00
4400
3c00
0000
0000
ENDCHAR
STARTCHAR e5
ENCODING 229
SWIDTH 960 0
DWIDTH 6 0
BBX 10 10 0 -2
BITMAP
1000
2800
1000
3800
0400
3c00
4400
3c00
0000
0000
ENDCHAR
STARTCHAR e6
ENCODING 230
SWIDTH 960 0
DWIDTH 8 0
BBX 10 10 0 -2
BITMAP
0000
0000
0000
3600
0900
3f00
4800
3600
0000
0000
ENDCHAR
STARTCHAR e7
ENCODING 231
SWIDTH 960 0
DWIDTH 6 0
BBX 10 10 0 -2
BITMAP
0000
0000
0000
3800
4400
4000
4400
3800
1000
2000
ENDCHAR
STARTCHAR e8
ENCODING 232
SWIDTH 960 0
DWIDTH 6 0
BBX 10 10 0 -2
BITMAP
2000
1000
0000
3800
4400
7c00
4000
3800
0000
0000
ENDCHAR
STARTCHAR e9
ENCODING 233
SWIDTH 960 0
DWIDTH 6 0
BBX 10 10 0 -2
BITMAP
0800
1000
0000
3800
4400
7c00
4000
3800
0000
0000
ENDCHAR
STARTCHAR ea
ENCODING 234
SWIDTH 960 0
DWIDTH 6 0
BBX 10 10 0 -2
BITMAP
1000
2800
0000
3800
4400
7c00
4000
3800
0000
0000
ENDCHAR
STARTCHAR eb
ENCODING 235
SWIDTH 960 0
DWIDTH 6 0
BBX 10 10 0 -2
BITMAP
0000
2800
0000
3800
4400
7c00
4000
3800
0000
0000
ENDCHAR
STARTCHAR ec
ENCODING 236
SWIDTH 960 0
DWIDTH 4 0
BBX 10 10 0 -2
BITMAP
4000
2000
0000
6000
2000
2000
2000
7000
0000
0000
ENDCHAR
STARTCHAR ed
ENCODING 237
SWIDTH 960 0
DWIDTH 4 0
BBX 10 10 0 -2
BITMAP
1000
2000
0000
6000
2000
2000
2000
7000
0000
0000
ENDCHAR
STARTCHAR ee
ENCODING 238
SWIDTH 960 0
DWIDTH 4 0
BBX 10 10 0 -2
BITMAP
2000
5000
0000
6000
2000
2000
2000
7000
0000
0000
ENDCHAR
STARTCHAR ef
ENCODING 239
SWIDTH 960 0
DWIDTH 4 0
BBX 10 10 0 -2
BITMAP
0000
5000
0000
6000
2000
2000
2000
7000
0000
0000
ENDCHAR
STARTCHAR f0
ENCODING 240
SWIDTH 960 0
DWIDTH 6 0
BBX 10 10 0 -2
BITMAP
4800
3000
4800
3800
4400
4400
4400
3800
0000
0000
ENDCHAR
STARTCHAR f1
ENCODING 241
SWIDTH 960 0
DWIDTH 8 0
BBX 10 10 0 -2
BITMAP
0a00
1400
0000
6c00
3200
2200
2200
7700
0000
0000
ENDCHAR
STARTCHAR f2
ENCODING 242
SWIDTH 960 0
DWIDTH 6 0
BBX 10 10 0 -2
BITMAP
2000
1000
0000
3800
4400
4400
4400
3800
0000
0000
ENDCHAR
STARTCHAR f3
ENCODING 243
SWIDTH 960 0
DWIDTH 6 0
BBX 10 10 0 -2
BITMAP
0800
1000
0000
3800
4400
4400
4400
3800
0000
0000
ENDCHAR
STARTCHAR f4
ENCODING 244
SWIDTH 960 0
DWIDTH 6 0
BBX 10 10 0 -2
BITMAP
1000
2800
0000
3800
4400
4400
4400
3800
0000
0000
ENDCHAR
STARTCHAR f5
ENCODING 245
SWIDTH 960 0
DWIDTH 6 0
BBX 10 10 0 -2
BITMAP
1400
2800
0000
3800
4400
4400
4400
3800
0000
0000
ENDCHAR
STARTCHAR f6
ENCODING 246
SWIDTH 960 0
DWIDTH 6 0
BBX 10 10 0 -2
BITMAP
0000
2800
0000
3800
4400
4400
4400
3800
0000
0000
ENDCHAR
STARTCHAR f7
ENCODING 247
SWIDTH 960 0
DWIDTH 6 0
BBX 10 10 0 -2
BITMAP
0000
0000
0000
1000
0000
7c00
0000
1000
0000
0000
ENDCHAR
STARTCHAR f8
ENCODING 248
SWIDTH 960 0
DWIDTH 6 0
BBX 10 10 0 -2
BITMAP
0000
0000
0000
3400
4800
5400
2400
5800
0000
0000
ENDCHAR
STARTCHAR f9
ENCODING 249
SWIDTH 960 0
DWIDTH 8 0
BBX 10 10 0 -2
BITMAP
1000
0800
0000
6600
2200
2200
2600
1b00
0000
0000
ENDCHAR
STARTCHAR fa
ENCODING 250
SWIDTH 960 0
DWIDTH 8 0
BBX 10 10 0 -2
BITMAP
0400
0800
0000
6600
2200
2200
2600
1b00
0000
0000
ENDCHAR
STARTCHAR fb
ENCODING 251
SWIDTH 960 0
DWIDTH 8 0
BBX 10 10 0 -2
BITMAP
0800
1400
0000
6600
2200
2200
2600
1b00
0000
0000
ENDCHAR
STARTCHAR fc
ENCODING 252
SWIDTH 960 0
DWIDTH 8 0
BBX 10 10 0 -2
BITMAP
0000
1400
0000
6600
2200
2200
2600
1b00
0000
0000
ENDCHAR
STARTCHAR fd
ENCODING 253
SWIDTH 960 0
DWIDTH 8 0
BBX 10 10 0 -2
BITMAP
0400
0800
0000
7700
2200
1400
1400
0800
4800
3000
ENDCHAR
STARTCHAR fe
ENCODING 254
SWIDTH 960 0
DWIDTH 7 0
BBX 10 10 0 -2
BITMAP
0000
6000
2000
2c00
3200
2200
3200
2c00
2000
7000
ENDCHAR
STARTCHAR ff
ENCODING 255
SWIDTH 960 0
DWIDTH 8 0
BBX 10 10 0 -2
BITMAP
0000
1400
0000
7700
2200
1400
1400
0800
4800
3000
ENDCHAR
STARTCHAR 2621
ENCODING 913
SWIDTH 960 0
DWIDTH 10 0
BBX 10 10 0 -2
BITMAP
0000
0800
0800
1400
1400
3e00
2200
7700
0000
0000
ENDCHAR
STARTCHAR 2622
ENCODING 914
SWIDTH 960 0
DWIDTH 10 0
BBX 10 10 0 -2
BITMAP
0000
7c00
2200
2200
3c00
2200
2200
7c00
0000
0000
ENDCHAR
STARTCHAR 2623
ENCODING 915
SWIDTH 960 0
DWIDTH 10 0
BBX 10 10 0 -2
BITMAP
0000
7e00
2200
2000
2000
2000
2000
7000
0000
0000
ENDCHAR
STARTCHAR 2624
ENCODING 916
SWIDTH 960 0
DWIDTH 10 0
BBX 10 10 0 -2
BITMAP
0000
0800
0800
1400
1400
2200
2200
7f00
0000
0000
ENDCHAR
STARTCHAR 2625
ENCODING 917
SWIDTH 960 0
DWIDTH 10 0
BBX 10 10 0 -2
BITMAP
0000
7e00
2200
2800
3800
2800
2200
7e00
0000
0000
ENDCHAR
STARTCHAR 2626
ENCODING 918
SWIDTH 960 0
DWIDTH 10 0
BBX 10 10 0 -2
BITMAP
0000
7e00
4400
0800
1000
1000
2200
7e00
0000
0000
ENDCHAR
STARTCHAR 2627
ENCODING 919
SWIDTH 960 0
DWIDTH 10 0
BBX 10 10 0 -2
BITMAP
0000
7700
2200
2200
3e00
2200
2200
7700
0000
0000
ENDCHAR
STARTCHAR 2628
ENCODING 920
SWIDTH 960 0
DWIDTH 10 0
BBX 10 10 0 -2
BITMAP
0000
1c00
2200
4100
5d00
4100
2200
1c00
0000
0000
ENDCHAR
STARTCHAR 2629
ENCODING 921
SWIDTH 960 0
DWIDTH 10 0
BBX 10 10 0 -2
BITMAP
0000
7000
2000
2000
2000
2000
2000
7000
0000
0000
ENDCHAR
STARTCHAR 262a
ENCODING 922
SWIDTH 960 0
DWIDTH 10 0
BBX 10 10 0 -2
BITMAP
0000
7700
2400
2800
3000
2800
2400
7700
0000
0000
ENDCHAR
STARTCHAR 262b
ENCODING 923
SWIDTH 960 0
DWIDTH 10 0
BBX 10 10 0 -2
BITMAP
0000
0800
0800
1400
1400
2200
2200
7700
0000
0000
ENDCHAR
STARTCHAR 262c
ENCODING 924
SWIDTH 960 0
DWIDTH 10 0
BBX 10 10 0 -2
BITMAP
0000
60c0
3180
3180
2a80
2a80
2480
75c0
0000
0000
ENDCHAR
STARTCHAR 262d
ENCODING 925
SWIDTH 960 0
DWIDTH 10 0
BBX 10 10 0 -2
BITMAP
0000
6380
3100
2900
2500
2300
2100
7380
0000
0000
ENDCHAR
STARTCHAR 262e
ENCODING 926
SWIDTH 960 0
DWIDTH 10 0
BBX 10 10 0 -2
BITMAP
0000
7e00
4200
0000
3c00
0000
4200
7e00
0000
0000
ENDCHAR
STARTCHAR 262f
ENCODING 927
SWIDTH 960 0
DWIDTH 10 0
BBX 10 10 0 -2
BITMAP
0000
1c00
2200
4100
4100
4100
2200
1c00
0000
0000
ENDCHAR
STARTCHAR 2630
ENCODING 928
SWIDTH 960 0
DWIDTH 10 0
BBX 10 10 0 -2
BITMAP
0000
7f00
2200
2200
2200
2200
2200
7700
0000
0000
ENDCHAR
STARTCHAR 2631
ENCODING 929
SWIDTH 960 0
DWIDTH 10 0
BBX 10 10 0 -2
BITMAP
0000
7c00
2200
2200
3c00
2000
2000
7000
0000
0000
ENDCHAR
STARTCHAR 2632
ENCODING 931
SWIDTH 960 0
DWIDTH 10 0
BBX 10 10 0 -2
BITMAP
0000
7e00
2200
1000
0800
1000
2200
7e00
0000
0000
ENDCHAR
STARTCHAR 2633
ENCODING 932
SWIDTH 960 0
DWIDTH 10 0
BBX 10 10 0 -2
BITMAP
0000
7f00
4900
0800
0800
0800
0800
1c00
0000
0000
ENDCHAR
STARTCHAR 2634
ENCODING 933
SWIDTH 960 0
DWIDTH 10 0
BBX 10 10 0 -2
BITMAP
0000
2200
5500
4900
0800
0800
0800
1c00
0000
0000
ENDCHAR
STARTCHAR 2635
ENCODING 934
SWIDTH 960 0
DWIDTH 10 0
BBX 10 10 0 -2
BITMAP
0000
0800
3e00
4900
4900
4900
3e00
0800
0000
0000
ENDCHAR
STARTCHAR 2636
ENCODING 935
SWIDTH 960 0
DWIDTH 10 0
BBX 10 10 0 -2
BITMAP
0000
7700
2200
1400
0800
1400
2200
7700
0000
0000
ENDCHAR
STARTCHAR 2637
ENCODING 936
SWIDTH 960 0
DWIDTH 10 0
BBX 10 10 0 -2
BITMAP
0000
0e00
2480
5540
1500
0e00
0400
0e00
0000
0000
ENDCHAR
STARTCHAR 2638
ENCODING 937
SWIDTH 960 0
DWIDTH 10 0
BBX 10 10 0 -2
BITMAP
0000
1c00
2200
4100
4100
2200
5500
7700
0000
0000
ENDCHAR
STARTCHAR 2641
ENCODING 945
SWIDTH 960 0
DWIDTH 10 0
BBX 10 10 0 -2
BITMAP
0000
0000
0000
1a00
2600
4400
4800
3600
0000
0000
ENDCHAR
STARTCHAR 2642
ENCODING 946
SWIDTH 960 0
DWIDTH 10 0
BBX 10 10 0 -2
BITMAP
0000
1800
2400
2400
2800
4400
6400
5800
4000
4000
ENDCHAR
STARTCHAR 2643
ENCODING 947
SWIDTH 960 0
DWIDTH 10 0
BBX 10 10 0 -2
BITMAP
0000
0000
0000
3200
4c00
0800
0800
1000
1000
0000
ENDCHAR
STARTCHAR 2644
ENCODING 948
SWIDTH 960 0
DWIDTH 10 0
BBX 10 10 0 -2
BITMAP
0000
1800
2400
1000
2800
4800
4800
3000
0000
0000
ENDCHAR
STARTCHAR 2645
ENCODING 949
SWIDTH 960 0
DWIDTH 10 0
BBX 10 10 0 -2
BITMAP
0000
0000
0000
1800
2400
3000
4400
3800
0000
0000
ENDCHAR
STARTCHAR 2646
ENCODING 950
SWIDTH 960 0
DWIDTH 10 0
BBX 10 10 0 -2
BITMAP
0000
1000
3c00
1000
2000
4000
4000
3000
0800
3000
ENDCHAR
STARTCHAR 2647
ENCODING 951
SWIDTH 960 0
DWIDTH 10 0
BBX 10 10 0 -2
BITMAP
0000
0000
0000
3400
5a00
1200
2200
2400
0400
0400
ENDCHAR
STARTCHAR 2648
ENCODING 952
SWIDTH 960 0
DWIDTH 10 0
BBX 10 10 0 -2
BITMAP
0000
1800
2400
2400
7c00
4800
4800
3000
0000
0000
ENDCHAR
STARTCHAR 2649
ENCODING 953
SWIDTH 960 0
DWIDTH 10 0
BBX 10 10 0 -2
BITMAP
0000
0000
0000
2000
2000
4000
5000
2000
0000
0000
ENDCHAR
STARTCHAR 264a
ENCODING 954
SWIDTH 960 0
DWIDTH 10 0
BBX 10 10 0 -2
BITMAP
0000
0000
0000
2400
2800
3000
5400
4800
0000
0000
ENDCHAR
STARTCHAR 264b
ENCODING 955
SWIDTH 960 0
DWIDTH 10 0
BBX 10 10 0 -2
BITMAP
0000
3000
0800
0800
1800
2800
2400
4400
0000
0000
ENDCHAR
STARTCHAR 264c
ENCODING 956
SWIDTH 960 0
DWIDTH 10 0
BBX 10 10 0 -2
BITMAP
0000
0000
0000
1200
1200
2400
2400
5b00
4000
4000
ENDCHAR
STARTCHAR 264d
ENCODING 957
SWIDTH 960 0
DWIDTH 10 0
BBX 10 10 0 -2
BITMAP
0000
0000
0000
2200
5200
1400
1400
3800
0000
0000
ENDCHAR
STARTCHAR 264e
ENCODING 958
SWIDTH 960 0
DWIDTH 10 0
BBX 10 10 0 -2
BITMAP
0000
0800
1c00
2000
3800
4000
4000
3800
0800
3000
ENDCHAR
STARTCHAR 264f
ENCODING 959
SWIDTH 960 0
DWIDTH 10 0
BBX 10 10 0 -2
BITMAP
0000
0000
0000
1800
2400
4400
4800
3000
0000
0000
ENDCHAR
STARTCHAR 2650
ENCODING 960
SWIDTH 960 0
DWIDTH 10 0
BBX 10 10 0 -2
BITMAP
0000
0000
0000
3f00
5400
1400
2400
4300
0000
0000
ENDCHAR
STARTCHAR 2651
ENCODING 961
SWIDTH 960 0
DWIDTH 10 0
BBX 10 10 0 -2
BITMAP
0000
0000
0000
1800
2400
2400
6400
5800
4000
4000
ENDCHAR
STARTCHAR 2652
ENCODING 963
SWIDTH 960 0
DWIDTH 10 0
BBX 10 10 0 -2
BITMAP
0000
0000
0000
1e00
2400
4400
4800
3000
0000
0000
ENDCHAR
STARTCHAR 2653
ENCODING 964
SWIDTH 960 0
DWIDTH 10 0
BBX 10 10 0 -2
BITMAP
0000
0000
0000
3e00
4800
1000
1000
0c00
0000
0000
ENDCHAR
STARTCHAR 2654
ENCODING 965
SWIDTH 960 0
DWIDTH 10 0
BBX 10 10 0 -2
BITMAP
0000
0000
0000
1200
2900
1100
1200
0c00
0000
0000
ENDCHAR
STARTCHAR 2655
ENCODING 966
SWIDTH 960 0
DWIDTH 10 0
BBX 10 10 0 -2
BITMAP
0000
0200
0200
0e00
1500
1500
1500
0e00
0800
0800
ENDCHAR
STARTCHAR 2656
ENCODING 967
SWIDTH 960 0
DWIDTH 10 0
BBX 10 10 0 -2
BITMAP
0000
0000
3100
0a00
0c00
0800
0800
1800
2800
4600
ENDCHAR
STARTCHAR 2657
ENCODING 968
SWIDTH 960 0
DWIDTH 10 0
BBX 10 10 0 -2
BITMAP
0000
0400
0400
2500
5500
2900
2a00
1c00
0800
0800
ENDCHAR
STARTCHAR 2658
ENCODING 969
SWIDTH 960 0
DWIDTH 10 0
BBX 10 10 0 -2
BITMAP
0000
0000
0000
2200
4900
4900
5900
2600
0000
0000
ENDCHAR
STARTCHAR 2727
ENCODING 1025
SWIDTH 960 0
DWIDTH 7 0
BBX 10 10 0 -2
BITMAP
2400
0000
7e00
2200
3800
2000
2200
7e00
0000
0000
ENDCHAR
STARTCHAR 2721
ENCODING 1040
SWIDTH 960 0
DWIDTH 8 0
BBX 10 10 0 -2
BITMAP
0000
0800
0800
1400
1400
3e00
2200
7700
0000
0000
ENDCHAR
STARTCHAR 2722
ENCODING 1041
SWIDTH 960 0
DWIDTH 7 0
BBX 10 10 0 -2
BITMAP
0000
7c00
2200
2000
3c00
2200
2200
7c00
0000
0000
ENDCHAR
STARTCHAR 2723
ENCODING 1042
SWIDTH 960 0
DWIDTH 7 0
BBX 10 10 0 -2
BITMAP
0000
7c00
2200
2200
3c00
2200
2200
7c00
0000
0000
ENDCHAR
STARTCHAR 2724
ENCODING 1043
SWIDTH 960 0
DWIDTH 7 0
BBX 10 10 0 -2
BITMAP
0000
7e00
2200
2000
2000
2000
2000
7000
0000
0000
ENDCHAR
STARTCHAR 2725
ENCODING 1044
SWIDTH 960 0
DWIDTH 7 0
BBX 10 10 0 -2
BITMAP
0000
3e00
1400
1400
2400
2400
2400
7e00
4200
0000
ENDCHAR
STARTCHAR 2726
ENCODING 1045
SWIDTH 960 0
DWIDTH 7 0
BBX 10 10 0 -2
BITMAP
0000
7e00
2200
2800
3800
2800
2200
7e00
0000
0000
ENDCHAR
STARTCHAR 2728
ENCODING 1046
SWIDTH 960 0
DWIDTH 10 0
BBX 10 10 0 -2
BITMAP
0000
6ec0
5540
1500
0e00
1500
2480
6ec0
0000
0000
ENDCHAR
STARTCHAR 2729
ENCODING 1047
SWIDTH 960 0
DWIDTH 7 0
BBX 10 10 0 -2
BITMAP
0000
3c00
4200
0200
1c00
0200
4200
3c00
0000
0000
ENDCHAR
STARTCHAR 272a
ENCODING 1048
SWIDTH 960 0
DWIDTH 8 0
BBX 10 10 0 -2
BITMAP
0000
7700
2200
2600
2a00
3200
2200
7700
0000
0000
ENDCHAR
STARTCHAR 272b
ENCODING 1049
SWIDTH 960 0
DWIDTH 8 0
BBX 10 10 0 -2
BITMAP
2200
1c00
6300
2600
2a00
3200
2200
7700
0000
0000
ENDCHAR
STARTCHAR 272c
ENCODING 1050
SWIDTH 960 0
DWIDTH 8 0
BBX 10 10 0 -2
BITMAP
0000
7300
2500
2400
3800
2400
2200
7700
0000
0000
ENDCHAR
STARTCHAR 272d
ENCODING 1051
SWIDTH 960 0
DWIDTH 8 0
BBX 10 10 0 -2
BITMAP
0000
3f00
1200
1200
1200
1200
5200
6700
0000
0000
ENDCHAR
STARTCHAR 272e
ENCODING 1052
SWIDTH 960 0
DWIDTH 10 0
BBX 10 10 0 -2
BITMAP
0000
71c0
3180
2a80
2a80
2480
2480
71c0
0000
0000
ENDCHAR
STARTCHAR 272f
ENCODING 1053
SWIDTH 960 0
DWIDTH 8 0
BBX 10 10 0 -2
BITMAP
0000
7700
2200
2200
3e00
2200
2200
7700
0000
0000
ENDCHAR
STARTCHAR 2730
ENCODING 1054
SWIDTH 960 0
DWIDTH 8 0
BBX 10 10 0 -2
BITMAP
0000
1c00
2200
4100
4100
4100
2200
1c00
0000
0000
ENDCHAR
STARTCHAR 2731
ENCODING 1055
SWIDTH 960 0
DWIDTH 8 0
BBX 10 10 0 -2
BITMAP
0000
7f00
2200
2200
2200
2200
2200
7700
0000
0000
ENDCHAR
STARTCHAR 2732
ENCODING 1056
SWIDTH 960 0
DWIDTH 7 0
BBX 10 10 0 -2
BITMAP
0000
7c00
2200
2200
3c00
2000
2000
7000
0000
0000
ENDCHAR
STARTCHAR 2733
ENCODING 1057
SWIDTH 960 0
DWIDTH 7 0
BBX 10 10 0 -2
BITMAP
0000
3c00
4200
4000
4000
4000
4200
3c00
0000
0000
ENDCHAR
STARTCHAR 2734
ENCODING 1058
SWIDTH 960 0
DWIDTH 8 0
BBX 10 10 0 -2
BITMAP
0000
7f00
4900
0800
0800
0800
0800
1c00
0000
0000
ENDCHAR
STARTCHAR 2735
ENCODING 1059
SWIDTH 960 0
DWIDTH 8 0
BBX 10 10 0 -2
BITMAP
0000
7700
2200
2200
1400
1400
4800
3000
0000
0000
ENDCHAR
STARTCHAR 2736
ENCODING 1060
SWIDTH 960 0
DWIDTH 8 0
BBX 10 10 0 -2
BITMAP
0800
3e00
4900
4900
4900
3e00
0800
0800
0000
0000
ENDCHAR
STARTCHAR 2737
ENCODING 1061
SWIDTH 960 0
DWIDTH 8 0
BBX 10 10 0 -2
BITMAP
0000
7700
2200
1400
0800
1400
2200
7700
0000
0000
ENDCHAR
STARTCHAR 2738
ENCODING 1062
SWIDTH 960 0
DWIDTH 8 0
BBX 10 10 0 -2
BITMAP
0000
7700
2200
2200
2200
2200
2200
7f00
0100
0000
ENDCHAR
STARTCHAR 2739
ENCODING 1063
SWIDTH 960 0
DWIDTH 8 0
BBX 10 10 0 -2
BITMAP
0000
7700
2200
2200
2600
1a00
0200
0700
0000
0000
ENDCHAR
STARTCHAR 273a
ENCODING 1064
SWIDTH 960 0
DWIDTH 10 0
BBX 10 10 0 -2
BITMAP
0000
6dc0
2480
2480
2480
2480
2480
7fc0
0000
0000
ENDCHAR
STARTCHAR 273b
ENCODING 1065
SWIDTH 960 0
DWIDTH 10 0
BBX 10 10 0 -2
BITMAP
0000
6dc0
2480
2480
2480
2480
2480
7fc0
0040
0000
ENDCHAR
STARTCHAR 273c
ENCODING 1066
SWIDTH 960 0
DWIDTH 8 0
BBX 10 10 0 -2
BITMAP
0000
7000
5000
1000
1e00
1100
1100
3e00
0000
0000
ENDCHAR
STARTCHAR 273d
ENCODING 1067
SWIDTH 960 0
DWIDTH 10 0
BBX 10 10 0 -2
BITMAP
0000
71c0
2080
2080
3c80
2280
2280
7dc0
0000
0000
ENDCHAR
STARTCHAR 273e
ENCODING 1068
SWIDTH 960 0
DWIDTH 7 0
BBX 10 10 0 -2
BITMAP
0000
7000
2000
2000
3c00
2200
2200
7c00
0000
0000
ENDCHAR
STARTCHAR 273f
ENCODING 1069
SWIDTH 960 0
DWIDTH 7 0
BBX 10 10 0 -2
BITMAP
0000
3c00
4200
0200
1e00
0200
4200
3c00
0000
0000
ENDCHAR
STARTCHAR 2740
ENCODING 1070
SWIDTH 960 0
DWIDTH 10 0
BBX 10 10 0 -2
BITMAP
0000
7380
2440
2440
3c40
2440
2440
7380
0000
0000
ENDCHAR
STARTCHAR 2741
ENCODING 1071
SWIDTH 960 0
DWIDTH 7 0
BBX 10 10 0 -2
BITMAP
0000
3e00
4400
4400
3c00
1400
2400
6e00
0000
0000
ENDCHAR
STARTCHAR 2751
ENCODING 1072
SWIDTH 960 0
DWIDTH 7 0
BBX 10 10 0 -2
BITMAP
0000
0000
0000
3800
0400
3c00
4400
3a00
0000
0000
ENDCHAR
STARTCHAR 2752
ENCODING 1073
SWIDTH 960 0
DWIDTH 6 0
BBX 10 10 0 -2
BITMAP
0400
3800
4000
7800
4400
4400
4400
3800
0000
0000
ENDCHAR
STARTCHAR 2753
ENCODING 1074
SWIDTH 960 0
DWIDTH 7 0
BBX 10 10 0 -2
BITMAP
0000
0000
0000
7c00
2200
3c00
2200
7c00
0000
0000
ENDCHAR
STARTCHAR 2754
ENCODING 1075
SWIDTH 960 0
DWIDTH 6 0
BBX 10 10 0 -2
BITMAP
0000
0000
0000
7c00
2400
2000
2000
7000
0000
0000
ENDCHAR
STARTCHAR 2755
ENCODING 1076
SWIDTH 960 0
DWIDTH 7 0
BBX 10 10 0 -2
BITMAP
0000
0000
0000
3e00
1400
1400
2400
7e00
4200
0000
ENDCHAR
STARTCHAR 2756
ENCODING 1077
SWIDTH 960 0
DWIDTH 6 0
BBX 10 10 0 -2
BITMAP
0000
0000
0000
3800
4400
7c00
4000
3800
0000
0000
ENDCHAR
STARTCHAR 2758
ENCODING 1078
SWIDTH 960 0
DWIDTH 8 0
BBX 10 10 0 -2
BITMAP
0000
0000
0000
6b00
2a00
1c00
2a00
6b00
0000
0000
ENDCHAR
STARTCHAR 2759
ENCODING 1079
SWIDTH 960 0
DWIDTH 6 0
BBX 10 10 0 -2
BITMAP
0000
0000
0000
3800
4400
1800
4400
3800
0000
0000
ENDCHAR
STARTCHAR 275a
ENCODING 1080
SWIDTH 960 0
DWIDTH 8 0
BBX 10 10 0 -2
BITMAP
0000
0000
0000
7300
2600
2a00
3200
6700
0000
0000
ENDCHAR
STARTCHAR 275b
ENCODING 1081
SWIDTH 960 0
DWIDTH 8 0
BBX 10 10 0 -2
BITMAP
0000
1400
0800
6300
2600
2a00
3200
6700
0000
0000
ENDCHAR
STARTCHAR 275c
ENCODING 1082
SWIDTH 960 0
DWIDTH 7 0
BBX 10 10 0 -2
BITMAP
0000
0000
0000
7600
2a00
3800
2400
7600
0000
0000
ENDCHAR
STARTCHAR 275d
ENCODING 1083
SWIDTH 960 0
DWIDTH 7 0
BBX 10 10 0 -2
BITMAP
0000
0000
0000
3e00
1400
1400
5400
6400
0000
0000
ENDCHAR
STARTCHAR 275e
ENCODING 1084
SWIDTH 960 0
DWIDTH 8 0
BBX 10 10 0 -2
BITMAP
0000
0000
0000
6300
3600
2a00
2a00
6300
0000
0000
ENDCHAR
STARTCHAR 275f
ENCODING 1085
SWIDTH 960 0
DWIDTH 8 0
BBX 10 10 0 -2
BITMAP
0000
0000
0000
7700
2200
3e00
2200
7700
0000
0000
ENDCHAR
STARTCHAR 2760
ENCODING 1086
SWIDTH 960 0
DWIDTH 6 0
BBX 10 10 0 -2
BITMAP
0000
0000
0000
3800
4400
4400
4400
3800
0000
0000
ENDCHAR
STARTCHAR 2761
ENCODING 1087
SWIDTH 960 0
DWIDTH 8 0
BBX 10 10 0 -2
BITMAP
0000
0000
0000
7f00
2200
2200
2200
7700
0000
0000
ENDCHAR
STARTCHAR 2762
ENCODING 1088
SWIDTH 960 0
DWIDTH 7 0
BBX 10 10 0 -2
BITMAP
0000
0000
0000
6c00
3200
2200
3200
2c00
2000
7000
ENDCHAR
STARTCHAR 2763
ENCODING 1089
SWIDTH 960 0
DWIDTH 6 0
BBX 10 10 0 -2
BITMAP
0000
0000
0000
3800
4400
4000
4400
3800
0000
0000
ENDCHAR
STARTCHAR 2764
ENCODING 1090
SWIDTH 960 0
DWIDTH 6 0
BBX 10 10 0 -2
BITMAP
0000
0000
0000
7c00
5400
1000
1000
3800
0000
0000
ENDCHAR
STARTCHAR 2765
ENCODING 1091
SWIDTH 960 0
DWIDTH 8 0
BBX 10 10 0 -2
BITMAP
0000
0000
0000
7700
2200
1400
1400
0800
4800
3000
ENDCHAR
STARTCHAR 2766
ENCODING 1092
SWIDTH 960 0
DWIDTH 8 0
BBX 10 10 0 -2
BITMAP
0000
1c00
0800
2a00
5d00
4900
5d00
2a00
0800
1c00
ENDCHAR
STARTCHAR 2767
ENCODING 1093
SWIDTH 960 0
DWIDTH 8 0
BBX 10 10 0 -2
BITMAP
0000
0000
0000
7700
1400
0800
1400
7700
0000
0000
ENDCHAR
STARTCHAR 2768
ENCODING 1094
SWIDTH 960 0
DWIDTH 8 0
BBX 10 10 0 -2
BITMAP
0000
0000
0000
7700
2200
2200
2200
7f00
0100
0000
ENDCHAR
STARTCHAR 2769
ENCODING 1095
SWIDTH 960 0
DWIDTH 8 0
BBX 10 10 0 -2
BITMAP
0000
0000
0000
7700
2200
2600
1a00
0700
0000
0000
ENDCHAR
STARTCHAR 276a
ENCODING 1096
SWIDTH 960 0
DWIDTH 10 0
BBX 10 10 0 -2
BITMAP
0000
0000
0000
6dc0
2480
2480
2480
7fc0
0000
0000
ENDCHAR
STARTCHAR 276b
ENCODING 1097
SWIDTH 960 0
DWIDTH 10 0
BBX 10 10 0 -2
BITMAP
0000
0000
0000
6dc0
2480
2480
2480
7fc0
0040
0000
ENDCHAR
STARTCHAR 276c
ENCODING 1098
SWIDTH 960 0
DWIDTH 8 0
BBX 10 10 0 -2
BITMAP
0000
0000
0000
7000
1000
1e00
1100
1e00
0000
0000
ENDCHAR
STARTCHAR 276d
ENCODING 1099
SWIDTH 960 0
DWIDTH 8 0
BBX 10 10 0 -2
BITMAP
0000
0000
0000
4100
4100
7900
4500
7900
0000
0000
ENDCHAR
STARTCHAR 276e
ENCODING 1100
SWIDTH 960 0
DWIDTH 6 0
BBX 10 10 0 -2
BITMAP
0000
0000
0000
4000
4000
7800
4400
7800
0000
0000
ENDCHAR
STARTCHAR 276f
ENCODING 1101
SWIDTH 960 0
DWIDTH 6 0
BBX 10 10 0 -2
BITMAP
0000
0000
0000
3800
4400
1c00
4400
3800
0000
0000
ENDCHAR
STARTCHAR 2770
ENCODING 1102
SWIDTH 960 0
DWIDTH 7 0
BBX 10 10 0 -2
BITMAP
0000
0000
0000
4c00
5200
7200
5200
4c00
0000
0000
ENDCHAR
STARTCHAR 2771
ENCODING 1103
SWIDTH 960 0
DWIDTH 7 0
BBX 10 10 0 -2
BITMAP
0000
0000
0000
3e00
4400
3c00
1400
6e00
0000
0000
ENDCHAR
STARTCHAR 2757
ENCODING 1105
SWIDTH 960 0
DWIDTH 6 0
BBX 10 10 0 -2
BITMAP
0000
2800
0000
3800
4400
7c00
4000
3800
0000
0000
ENDCHAR
STARTCHAR 216D
ENCODING 8470
SWIDTH 960 0
DWIDTH 10 0
BBX 10 10 0 -2
BITMAP
03c0
0400
2480
3540
3480
2c00
2dc0
4400
0000
0000
ENDCHAR
STARTCHAR 222b
ENCODING 8592
SWIDTH 960 0
DWIDTH 10 0
BBX 10 10 0 -2
BITMAP
0000
0000
1000
2000
7fc0
2000
1000
0000
0000
0000
ENDCHAR
STARTCHAR 222c
ENCODING 8593
SWIDTH 960 0
DWIDTH 10 0
BBX 10 10 0 -2
BITMAP
1000
3800
5400
1000
1000
1000
1000
1000
1000
0000
ENDCHAR
STARTCHAR 222a
ENCODING 8594
SWIDTH 960 0
DWIDTH 10 0
BBX 10 10 0 -2
BITMAP
0000
0000
0100
0080
7fc0
0080
0100
0000
0000
0000
ENDCHAR
STARTCHAR 222d
ENCODING 8595
SWIDTH 960 0
DWIDTH 10 0
BBX 10 10 0 -2
BITMAP
1000
1000
1000
1000
1000
1000
5400
3800
1000
0000
ENDCHAR
STARTCHAR 224d
ENCODING 8658
SWIDTH 960 0
DWIDTH 10 0
BBX 10 10 0 -2
BITMAP
0000
0200
0100
7f80
0040
7f80
0100
0200
0000
0000
ENDCHAR
STARTCHAR 224e
ENCODING 8660
SWIDTH 960 0
DWIDTH 10 0
BBX 10 10 0 -2
BITMAP
0000
0a00
1100
3f80
4040
3f80
1100
0a00
0000
0000
ENDCHAR
STARTCHAR 2263
ENCODING 8810
SWIDTH 960 0
DWIDTH 10 0
BBX 10 10 0 -2
BITMAP
0480
0900
1200
2400
4800
2400
1200
0900
0480
0000
ENDCHAR
STARTCHAR 2264
ENCODING 8811
SWIDTH 960 0
DWIDTH 10 0
BBX 10 10 0 -2
BITMAP
4800
2400
1200
0900
0480
0900
1200
2400
4800
0000
ENDCHAR
STARTCHAR 2154
ENCODING 12298
SWIDTH 960 0
DWIDTH 6 0
BBX 10 10 0 -2
BITMAP
1400
1400
2800
2800
5000
2800
2800
1400
1400
0000
ENDCHAR
STARTCHAR 2155
ENCODING 12299
SWIDTH 960 0
DWIDTH 6 0
BBX 10 10 0 -2
BITMAP
5000
5000
2800
2800
1400
2800
2800
5000
5000
0000
ENDCHAR
ENDFONT
